<svg width="439" height="85" viewBox="0 0 439 85" fill="none" xmlns="http://www.w3.org/2000/svg">
<path d="M5.607 2.182H0.252V1.048H12.264V2.182H6.909V16H5.607V2.182ZM17.1892 5.227C17.5392 5.227 17.8472 5.255 18.1132 5.311L18.0502 6.466C17.7842 6.41 17.4622 6.382 17.0842 6.382C16.0202 6.382 15.2222 6.725 14.6902 7.411C14.1722 8.083 13.9132 8.888 13.9132 9.826V16H12.6532V8.398C12.6532 7.306 12.5972 6.333 12.4852 5.479H13.7032L13.8712 7.432C14.1372 6.718 14.5642 6.172 15.1522 5.794C15.7542 5.416 16.4332 5.227 17.1892 5.227ZM28.6944 5.479V16H27.4134V13.984C27.1054 14.684 26.6364 15.223 26.0064 15.601C25.3904 15.965 24.6484 16.147 23.7804 16.147C22.8424 16.147 22.0164 15.93 21.3024 15.496C20.6024 15.048 20.0564 14.418 19.6644 13.606C19.2864 12.78 19.0974 11.821 19.0974 10.729C19.0974 9.637 19.2934 8.678 19.6854 7.852C20.0774 7.012 20.6234 6.368 21.3234 5.92C22.0374 5.458 22.8564 5.227 23.7804 5.227C24.6344 5.227 25.3694 5.409 25.9854 5.773C26.6154 6.137 27.0914 6.669 27.4134 7.369V5.479H28.6944ZM23.9694 15.013C25.0614 15.013 25.9084 14.635 26.5104 13.879C27.1124 13.123 27.4134 12.059 27.4134 10.687C27.4134 9.301 27.1124 8.23 26.5104 7.474C25.9084 6.718 25.0544 6.34 23.9484 6.34C22.8424 6.34 21.9814 6.732 21.3654 7.516C20.7494 8.286 20.4414 9.357 20.4414 10.729C20.4414 12.087 20.7494 13.144 21.3654 13.9C21.9814 14.642 22.8494 15.013 23.9694 15.013ZM35.8096 1.615C35.2076 1.615 34.7456 1.776 34.4236 2.098C34.1016 2.42 33.9406 2.994 33.9406 3.82V5.479H36.6496V6.508H33.9406V16H32.6596V6.508H30.6016V5.479H32.6596V3.589C32.6596 2.539 32.9186 1.755 33.4366 1.237C33.9546 0.719 34.6686 0.46 35.5786 0.46C35.9986 0.46 36.4326 0.515999 36.8806 0.627999V1.783C36.5026 1.671 36.1456 1.615 35.8096 1.615ZM47.8076 5.479V16H46.5266V13.984C46.2186 14.684 45.7496 15.223 45.1196 15.601C44.5036 15.965 43.7616 16.147 42.8936 16.147C41.9556 16.147 41.1296 15.93 40.4156 15.496C39.7156 15.048 39.1696 14.418 38.7776 13.606C38.3996 12.78 38.2106 11.821 38.2106 10.729C38.2106 9.637 38.4066 8.678 38.7986 7.852C39.1906 7.012 39.7366 6.368 40.4366 5.92C41.1506 5.458 41.9696 5.227 42.8936 5.227C43.7476 5.227 44.4826 5.409 45.0986 5.773C45.7286 6.137 46.2046 6.669 46.5266 7.369V5.479H47.8076ZM43.0826 15.013C44.1746 15.013 45.0216 14.635 45.6236 13.879C46.2256 13.123 46.5266 12.059 46.5266 10.687C46.5266 9.301 46.2256 8.23 45.6236 7.474C45.0216 6.718 44.1676 6.34 43.0616 6.34C41.9556 6.34 41.0946 6.732 40.4786 7.516C39.8626 8.286 39.5546 9.357 39.5546 10.729C39.5546 12.087 39.8626 13.144 40.4786 13.9C41.0946 14.642 41.9626 15.013 43.0826 15.013ZM51.2899 0.543999H52.5499V16H51.2899V0.543999ZM65.0772 5.479V16.042C65.0772 17.568 64.6992 18.723 63.9432 19.507C63.1872 20.291 62.0742 20.683 60.6042 20.683C59.0362 20.683 57.6712 20.305 56.5092 19.549L56.7612 18.436C57.4472 18.842 58.0772 19.129 58.6512 19.297C59.2252 19.465 59.8832 19.549 60.6252 19.549C61.6752 19.549 62.4662 19.262 62.9982 18.688C63.5442 18.114 63.8172 17.274 63.8172 16.168V13.459C63.4952 14.173 63.0192 14.726 62.3892 15.118C61.7592 15.496 61.0032 15.685 60.1212 15.685C59.1972 15.685 58.3782 15.468 57.6642 15.034C56.9502 14.586 56.3902 13.97 55.9842 13.186C55.5922 12.388 55.3962 11.478 55.3962 10.456C55.3962 9.42 55.5922 8.51 55.9842 7.726C56.3902 6.928 56.9502 6.312 57.6642 5.878C58.3782 5.444 59.1972 5.227 60.1212 5.227C61.0032 5.227 61.7522 5.409 62.3682 5.773C62.9982 6.137 63.4742 6.669 63.7962 7.369V5.479H65.0772ZM60.2892 14.53C61.3812 14.53 62.2352 14.166 62.8512 13.438C63.4812 12.71 63.7962 11.716 63.7962 10.456C63.7962 9.182 63.4812 8.181 62.8512 7.453C62.2352 6.711 61.3812 6.34 60.2892 6.34C59.1832 6.34 58.3152 6.711 57.6852 7.453C57.0552 8.181 56.7402 9.182 56.7402 10.456C56.7402 11.73 57.0552 12.731 57.6852 13.459C58.3152 14.173 59.1832 14.53 60.2892 14.53ZM77.4825 5.479V16H76.2015V13.984C75.8935 14.684 75.4245 15.223 74.7945 15.601C74.1785 15.965 73.4365 16.147 72.5685 16.147C71.6305 16.147 70.8045 15.93 70.0905 15.496C69.3905 15.048 68.8445 14.418 68.4525 13.606C68.0745 12.78 67.8855 11.821 67.8855 10.729C67.8855 9.637 68.0815 8.678 68.4735 7.852C68.8655 7.012 69.4115 6.368 70.1115 5.92C70.8255 5.458 71.6445 5.227 72.5685 5.227C73.4225 5.227 74.1575 5.409 74.7735 5.773C75.4035 6.137 75.8795 6.669 76.2015 7.369V5.479H77.4825ZM72.7575 15.013C73.8495 15.013 74.6965 14.635 75.2985 13.879C75.9005 13.123 76.2015 12.059 76.2015 10.687C76.2015 9.301 75.9005 8.23 75.2985 7.474C74.6965 6.718 73.8425 6.34 72.7365 6.34C71.6305 6.34 70.7695 6.732 70.1535 7.516C69.5375 8.286 69.2295 9.357 69.2295 10.729C69.2295 12.087 69.5375 13.144 70.1535 13.9C70.7695 14.642 71.6375 15.013 72.7575 15.013ZM85.5007 5.227C85.8507 5.227 86.1587 5.255 86.4247 5.311L86.3617 6.466C86.0957 6.41 85.7737 6.382 85.3957 6.382C84.3317 6.382 83.5337 6.725 83.0017 7.411C82.4837 8.083 82.2247 8.888 82.2247 9.826V16H80.9647V8.398C80.9647 7.306 80.9087 6.333 80.7967 5.479H82.0147L82.1827 7.432C82.4487 6.718 82.8757 6.172 83.4637 5.794C84.0657 5.416 84.7447 5.227 85.5007 5.227ZM98.5525 5.227C99.4765 5.227 100.289 5.458 100.989 5.92C101.703 6.368 102.256 7.012 102.648 7.852C103.04 8.678 103.236 9.637 103.236 10.729C103.236 11.821 103.04 12.773 102.648 13.585C102.27 14.397 101.724 15.027 101.01 15.475C100.296 15.923 99.4765 16.147 98.5525 16.147C97.6705 16.147 96.9145 15.958 96.2845 15.58C95.6685 15.188 95.2065 14.628 94.8985 13.9V20.536H93.6385V8.398C93.6385 7.306 93.5825 6.333 93.4705 5.479H94.6885L94.8565 7.537C95.1645 6.795 95.6335 6.228 96.2635 5.836C96.9075 5.43 97.6705 5.227 98.5525 5.227ZM98.3845 15.013C99.4905 15.013 100.352 14.642 100.968 13.9C101.584 13.144 101.892 12.087 101.892 10.729C101.892 9.357 101.584 8.286 100.968 7.516C100.352 6.732 99.4975 6.34 98.4055 6.34C97.2855 6.34 96.4245 6.718 95.8225 7.474C95.2205 8.23 94.9195 9.301 94.9195 10.687C94.9195 12.059 95.2205 13.123 95.8225 13.879C96.4245 14.635 97.2785 15.013 98.3845 15.013ZM110.582 5.227C110.932 5.227 111.24 5.255 111.506 5.311L111.443 6.466C111.177 6.41 110.855 6.382 110.477 6.382C109.413 6.382 108.615 6.725 108.083 7.411C107.565 8.083 107.306 8.888 107.306 9.826V16H106.046V8.398C106.046 7.306 105.99 6.333 105.878 5.479H107.096L107.264 7.432C107.53 6.718 107.957 6.172 108.545 5.794C109.147 5.416 109.826 5.227 110.582 5.227ZM117.341 16.147C116.375 16.147 115.521 15.923 114.779 15.475C114.051 15.027 113.484 14.39 113.078 13.564C112.686 12.738 112.49 11.779 112.49 10.687C112.49 9.595 112.686 8.636 113.078 7.81C113.484 6.984 114.051 6.347 114.779 5.899C115.521 5.451 116.375 5.227 117.341 5.227C118.293 5.227 119.133 5.451 119.861 5.899C120.589 6.347 121.149 6.984 121.541 7.81C121.947 8.636 122.15 9.595 122.15 10.687C122.15 11.779 121.947 12.738 121.541 13.564C121.149 14.39 120.589 15.027 119.861 15.475C119.133 15.923 118.293 16.147 117.341 16.147ZM117.32 15.013C118.44 15.013 119.301 14.642 119.903 13.9C120.519 13.144 120.827 12.073 120.827 10.687C120.827 9.315 120.519 8.251 119.903 7.495C119.287 6.725 118.433 6.34 117.341 6.34C116.235 6.34 115.374 6.725 114.758 7.495C114.142 8.251 113.834 9.315 113.834 10.687C113.834 12.087 114.135 13.158 114.737 13.9C115.339 14.642 116.2 15.013 117.32 15.013ZM133.776 5.479L129.261 16H127.938L123.486 5.479H124.851L128.652 14.719L132.474 5.479H133.776ZM135.885 5.479H137.145V16H135.885V5.479ZM137.397 1.132V2.77H135.696V1.132H137.397ZM149.588 0.543999V16H148.307V13.984C147.999 14.684 147.53 15.223 146.9 15.601C146.284 15.965 145.542 16.147 144.674 16.147C143.75 16.147 142.931 15.923 142.217 15.475C141.517 15.013 140.971 14.369 140.579 13.543C140.187 12.703 139.991 11.737 139.991 10.645C139.991 9.553 140.18 8.601 140.558 7.789C140.95 6.963 141.496 6.333 142.196 5.899C142.91 5.451 143.736 5.227 144.674 5.227C145.528 5.227 146.263 5.409 146.879 5.773C147.509 6.137 147.985 6.669 148.307 7.369V0.543999H149.588ZM144.842 15.013C145.948 15.013 146.802 14.635 147.404 13.879C148.006 13.123 148.307 12.059 148.307 10.687C148.307 9.315 148.006 8.251 147.404 7.495C146.802 6.725 145.955 6.34 144.863 6.34C143.743 6.34 142.875 6.718 142.259 7.474C141.643 8.23 141.335 9.287 141.335 10.645C141.335 12.017 141.643 13.088 142.259 13.858C142.875 14.628 143.736 15.013 144.842 15.013ZM153.742 10.582V10.645C153.742 12.059 154.064 13.144 154.708 13.9C155.366 14.642 156.318 15.013 157.564 15.013C158.824 15.013 159.979 14.579 161.029 13.711L161.533 14.719C161.071 15.153 160.483 15.503 159.769 15.769C159.055 16.021 158.32 16.147 157.564 16.147C155.968 16.147 154.708 15.664 153.784 14.698C152.86 13.732 152.398 12.402 152.398 10.708C152.398 9.63 152.601 8.678 153.007 7.852C153.427 7.012 154.008 6.368 154.75 5.92C155.492 5.458 156.346 5.227 157.312 5.227C158.698 5.227 159.776 5.675 160.546 6.571C161.33 7.467 161.722 8.713 161.722 10.309V10.582H153.742ZM157.312 6.277C156.346 6.277 155.562 6.571 154.96 7.159C154.358 7.733 153.98 8.545 153.826 9.595H160.504C160.42 8.517 160.105 7.698 159.559 7.138C159.013 6.564 158.264 6.277 157.312 6.277ZM167.895 16.147C166.187 16.147 164.836 15.678 163.842 14.74L164.304 13.753C164.864 14.215 165.424 14.544 165.984 14.74C166.558 14.936 167.216 15.034 167.958 15.034C168.826 15.034 169.484 14.887 169.932 14.593C170.394 14.285 170.625 13.844 170.625 13.27C170.625 12.794 170.471 12.423 170.163 12.157C169.869 11.877 169.379 11.653 168.693 11.485L166.908 11.086C166.068 10.89 165.403 10.54 164.913 10.036C164.437 9.532 164.199 8.944 164.199 8.272C164.199 7.348 164.549 6.613 165.249 6.067C165.963 5.507 166.908 5.227 168.084 5.227C168.826 5.227 169.512 5.346 170.142 5.584C170.786 5.822 171.318 6.165 171.738 6.613L171.255 7.6C170.289 6.76 169.232 6.34 168.084 6.34C167.272 6.34 166.642 6.501 166.194 6.823C165.746 7.145 165.522 7.593 165.522 8.167C165.522 8.643 165.662 9.028 165.942 9.322C166.236 9.616 166.684 9.833 167.286 9.973L169.092 10.414C170.982 10.834 171.927 11.765 171.927 13.207C171.927 14.089 171.563 14.803 170.835 15.349C170.107 15.881 169.127 16.147 167.895 16.147ZM185.116 5.227C186.04 5.227 186.852 5.458 187.552 5.92C188.266 6.368 188.819 7.012 189.211 7.852C189.603 8.678 189.799 9.637 189.799 10.729C189.799 11.821 189.603 12.773 189.211 13.585C188.833 14.397 188.287 15.027 187.573 15.475C186.859 15.923 186.04 16.147 185.116 16.147C184.234 16.147 183.478 15.958 182.848 15.58C182.232 15.188 181.77 14.628 181.462 13.9V20.536H180.202V8.398C180.202 7.306 180.146 6.333 180.034 5.479H181.252L181.42 7.537C181.728 6.795 182.197 6.228 182.827 5.836C183.471 5.43 184.234 5.227 185.116 5.227ZM184.948 15.013C186.054 15.013 186.915 14.642 187.531 13.9C188.147 13.144 188.455 12.087 188.455 10.729C188.455 9.357 188.147 8.286 187.531 7.516C186.915 6.732 186.061 6.34 184.969 6.34C183.849 6.34 182.988 6.718 182.386 7.474C181.784 8.23 181.483 9.301 181.483 10.687C181.483 12.059 181.784 13.123 182.386 13.879C182.988 14.635 183.842 15.013 184.948 15.013ZM197.145 5.227C197.495 5.227 197.803 5.255 198.069 5.311L198.006 6.466C197.74 6.41 197.418 6.382 197.04 6.382C195.976 6.382 195.178 6.725 194.646 7.411C194.128 8.083 193.869 8.888 193.869 9.826V16H192.609V8.398C192.609 7.306 192.553 6.333 192.441 5.479H193.659L193.827 7.432C194.093 6.718 194.52 6.172 195.108 5.794C195.71 5.416 196.389 5.227 197.145 5.227ZM203.904 16.147C202.938 16.147 202.084 15.923 201.342 15.475C200.614 15.027 200.047 14.39 199.641 13.564C199.249 12.738 199.053 11.779 199.053 10.687C199.053 9.595 199.249 8.636 199.641 7.81C200.047 6.984 200.614 6.347 201.342 5.899C202.084 5.451 202.938 5.227 203.904 5.227C204.856 5.227 205.696 5.451 206.424 5.899C207.152 6.347 207.712 6.984 208.104 7.81C208.51 8.636 208.713 9.595 208.713 10.687C208.713 11.779 208.51 12.738 208.104 13.564C207.712 14.39 207.152 15.027 206.424 15.475C205.696 15.923 204.856 16.147 203.904 16.147ZM203.883 15.013C205.003 15.013 205.864 14.642 206.466 13.9C207.082 13.144 207.39 12.073 207.39 10.687C207.39 9.315 207.082 8.251 206.466 7.495C205.85 6.725 204.996 6.34 203.904 6.34C202.798 6.34 201.937 6.725 201.321 7.495C200.705 8.251 200.397 9.315 200.397 10.687C200.397 12.087 200.698 13.158 201.3 13.9C201.902 14.642 202.763 15.013 203.883 15.013ZM220.526 5.479V16.042C220.526 17.568 220.148 18.723 219.392 19.507C218.636 20.291 217.523 20.683 216.053 20.683C214.485 20.683 213.12 20.305 211.958 19.549L212.21 18.436C212.896 18.842 213.526 19.129 214.1 19.297C214.674 19.465 215.332 19.549 216.074 19.549C217.124 19.549 217.915 19.262 218.447 18.688C218.993 18.114 219.266 17.274 219.266 16.168V13.459C218.944 14.173 218.468 14.726 217.838 15.118C217.208 15.496 216.452 15.685 215.57 15.685C214.646 15.685 213.827 15.468 213.113 15.034C212.399 14.586 211.839 13.97 211.433 13.186C211.041 12.388 210.845 11.478 210.845 10.456C210.845 9.42 211.041 8.51 211.433 7.726C211.839 6.928 212.399 6.312 213.113 5.878C213.827 5.444 214.646 5.227 215.57 5.227C216.452 5.227 217.201 5.409 217.817 5.773C218.447 6.137 218.923 6.669 219.245 7.369V5.479H220.526ZM215.738 14.53C216.83 14.53 217.684 14.166 218.3 13.438C218.93 12.71 219.245 11.716 219.245 10.456C219.245 9.182 218.93 8.181 218.3 7.453C217.684 6.711 216.83 6.34 215.738 6.34C214.632 6.34 213.764 6.711 213.134 7.453C212.504 8.181 212.189 9.182 212.189 10.456C212.189 11.73 212.504 12.731 213.134 13.459C213.764 14.173 214.632 14.53 215.738 14.53ZM228.543 5.227C228.893 5.227 229.201 5.255 229.467 5.311L229.404 6.466C229.138 6.41 228.816 6.382 228.438 6.382C227.374 6.382 226.576 6.725 226.044 7.411C225.526 8.083 225.267 8.888 225.267 9.826V16H224.007V8.398C224.007 7.306 223.951 6.333 223.839 5.479H225.057L225.225 7.432C225.491 6.718 225.918 6.172 226.506 5.794C227.108 5.416 227.787 5.227 228.543 5.227ZM231.795 10.582V10.645C231.795 12.059 232.117 13.144 232.761 13.9C233.419 14.642 234.371 15.013 235.617 15.013C236.877 15.013 238.032 14.579 239.082 13.711L239.586 14.719C239.124 15.153 238.536 15.503 237.822 15.769C237.108 16.021 236.373 16.147 235.617 16.147C234.021 16.147 232.761 15.664 231.837 14.698C230.913 13.732 230.451 12.402 230.451 10.708C230.451 9.63 230.654 8.678 231.06 7.852C231.48 7.012 232.061 6.368 232.803 5.92C233.545 5.458 234.399 5.227 235.365 5.227C236.751 5.227 237.829 5.675 238.599 6.571C239.383 7.467 239.775 8.713 239.775 10.309V10.582H231.795ZM235.365 6.277C234.399 6.277 233.615 6.571 233.013 7.159C232.411 7.733 232.033 8.545 231.879 9.595H238.557C238.473 8.517 238.158 7.698 237.612 7.138C237.066 6.564 236.317 6.277 235.365 6.277ZM245.948 16.147C244.24 16.147 242.889 15.678 241.895 14.74L242.357 13.753C242.917 14.215 243.477 14.544 244.037 14.74C244.611 14.936 245.269 15.034 246.011 15.034C246.879 15.034 247.537 14.887 247.985 14.593C248.447 14.285 248.678 13.844 248.678 13.27C248.678 12.794 248.524 12.423 248.216 12.157C247.922 11.877 247.432 11.653 246.746 11.485L244.961 11.086C244.121 10.89 243.456 10.54 242.966 10.036C242.49 9.532 242.252 8.944 242.252 8.272C242.252 7.348 242.602 6.613 243.302 6.067C244.016 5.507 244.961 5.227 246.137 5.227C246.879 5.227 247.565 5.346 248.195 5.584C248.839 5.822 249.371 6.165 249.791 6.613L249.308 7.6C248.342 6.76 247.285 6.34 246.137 6.34C245.325 6.34 244.695 6.501 244.247 6.823C243.799 7.145 243.575 7.593 243.575 8.167C243.575 8.643 243.715 9.028 243.995 9.322C244.289 9.616 244.737 9.833 245.339 9.973L247.145 10.414C249.035 10.834 249.98 11.765 249.98 13.207C249.98 14.089 249.616 14.803 248.888 15.349C248.16 15.881 247.18 16.147 245.948 16.147ZM256.325 16.147C254.617 16.147 253.266 15.678 252.272 14.74L252.734 13.753C253.294 14.215 253.854 14.544 254.414 14.74C254.988 14.936 255.646 15.034 256.388 15.034C257.256 15.034 257.914 14.887 258.362 14.593C258.824 14.285 259.055 13.844 259.055 13.27C259.055 12.794 258.901 12.423 258.593 12.157C258.299 11.877 257.809 11.653 257.123 11.485L255.338 11.086C254.498 10.89 253.833 10.54 253.343 10.036C252.867 9.532 252.629 8.944 252.629 8.272C252.629 7.348 252.979 6.613 253.679 6.067C254.393 5.507 255.338 5.227 256.514 5.227C257.256 5.227 257.942 5.346 258.572 5.584C259.216 5.822 259.748 6.165 260.168 6.613L259.685 7.6C258.719 6.76 257.662 6.34 256.514 6.34C255.702 6.34 255.072 6.501 254.624 6.823C254.176 7.145 253.952 7.593 253.952 8.167C253.952 8.643 254.092 9.028 254.372 9.322C254.666 9.616 255.114 9.833 255.716 9.973L257.522 10.414C259.412 10.834 260.357 11.765 260.357 13.207C260.357 14.089 259.993 14.803 259.265 15.349C258.537 15.881 257.557 16.147 256.325 16.147ZM263.279 5.479H264.539V16H263.279V5.479ZM264.791 1.132V2.77H263.09V1.132H264.791ZM276.982 5.479L272.467 16H271.144L266.692 5.479H268.057L271.858 14.719L275.68 5.479H276.982ZM279.66 10.582V10.645C279.66 12.059 279.982 13.144 280.626 13.9C281.284 14.642 282.236 15.013 283.482 15.013C284.742 15.013 285.897 14.579 286.947 13.711L287.451 14.719C286.989 15.153 286.401 15.503 285.687 15.769C284.973 16.021 284.238 16.147 283.482 16.147C281.886 16.147 280.626 15.664 279.702 14.698C278.778 13.732 278.316 12.402 278.316 10.708C278.316 9.63 278.519 8.678 278.925 7.852C279.345 7.012 279.926 6.368 280.668 5.92C281.41 5.458 282.264 5.227 283.23 5.227C284.616 5.227 285.694 5.675 286.464 6.571C287.248 7.467 287.64 8.713 287.64 10.309V10.582H279.66ZM283.23 6.277C282.264 6.277 281.48 6.571 280.878 7.159C280.276 7.733 279.898 8.545 279.744 9.595H286.422C286.338 8.517 286.023 7.698 285.477 7.138C284.931 6.564 284.182 6.277 283.23 6.277ZM291.881 14.173V15.517C291.881 16.049 291.797 16.539 291.629 16.987C291.461 17.435 291.181 17.855 290.789 18.247L290.117 17.722C290.593 17.19 290.859 16.616 290.915 16H290.096V14.173H291.881ZM309.323 5.479V16H308.042V13.984C307.734 14.684 307.265 15.223 306.635 15.601C306.019 15.965 305.277 16.147 304.409 16.147C303.471 16.147 302.645 15.93 301.931 15.496C301.231 15.048 300.685 14.418 300.293 13.606C299.915 12.78 299.726 11.821 299.726 10.729C299.726 9.637 299.922 8.678 300.314 7.852C300.706 7.012 301.252 6.368 301.952 5.92C302.666 5.458 303.485 5.227 304.409 5.227C305.263 5.227 305.998 5.409 306.614 5.773C307.244 6.137 307.72 6.669 308.042 7.369V5.479H309.323ZM304.598 15.013C305.69 15.013 306.537 14.635 307.139 13.879C307.741 13.123 308.042 12.059 308.042 10.687C308.042 9.301 307.741 8.23 307.139 7.474C306.537 6.718 305.683 6.34 304.577 6.34C303.471 6.34 302.61 6.732 301.994 7.516C301.378 8.286 301.07 9.357 301.07 10.729C301.07 12.087 301.378 13.144 301.994 13.9C302.61 14.642 303.478 15.013 304.598 15.013ZM317.699 5.227C320.233 5.227 321.5 6.585 321.5 9.301V16H320.219V9.385C320.219 8.335 320.002 7.565 319.568 7.075C319.148 6.585 318.483 6.34 317.573 6.34C316.523 6.34 315.676 6.662 315.032 7.306C314.388 7.95 314.066 8.818 314.066 9.91V16H312.806V8.398C312.806 7.306 312.75 6.333 312.638 5.479H313.856L314.024 7.411C314.346 6.697 314.829 6.158 315.473 5.794C316.117 5.416 316.859 5.227 317.699 5.227ZM333.871 0.543999V16H332.59V13.984C332.282 14.684 331.813 15.223 331.183 15.601C330.567 15.965 329.825 16.147 328.957 16.147C328.033 16.147 327.214 15.923 326.5 15.475C325.8 15.013 325.254 14.369 324.862 13.543C324.47 12.703 324.274 11.737 324.274 10.645C324.274 9.553 324.463 8.601 324.841 7.789C325.233 6.963 325.779 6.333 326.479 5.899C327.193 5.451 328.019 5.227 328.957 5.227C329.811 5.227 330.546 5.409 331.162 5.773C331.792 6.137 332.268 6.669 332.59 7.369V0.543999H333.871ZM329.125 15.013C330.231 15.013 331.085 14.635 331.687 13.879C332.289 13.123 332.59 12.059 332.59 10.687C332.59 9.315 332.289 8.251 331.687 7.495C331.085 6.725 330.238 6.34 329.146 6.34C328.026 6.34 327.158 6.718 326.542 7.474C325.926 8.23 325.618 9.287 325.618 10.645C325.618 12.017 325.926 13.088 326.542 13.858C327.158 14.628 328.019 15.013 329.125 15.013ZM351.631 5.479V16H350.35V13.984C350.042 14.684 349.573 15.223 348.943 15.601C348.327 15.965 347.585 16.147 346.717 16.147C345.779 16.147 344.953 15.93 344.239 15.496C343.539 15.048 342.993 14.418 342.601 13.606C342.223 12.78 342.034 11.821 342.034 10.729C342.034 9.637 342.23 8.678 342.622 7.852C343.014 7.012 343.56 6.368 344.26 5.92C344.974 5.458 345.793 5.227 346.717 5.227C347.571 5.227 348.306 5.409 348.922 5.773C349.552 6.137 350.028 6.669 350.35 7.369V5.479H351.631ZM346.906 15.013C347.998 15.013 348.845 14.635 349.447 13.879C350.049 13.123 350.35 12.059 350.35 10.687C350.35 9.301 350.049 8.23 349.447 7.474C348.845 6.718 347.991 6.34 346.885 6.34C345.779 6.34 344.918 6.732 344.302 7.516C343.686 8.286 343.378 9.357 343.378 10.729C343.378 12.087 343.686 13.144 344.302 13.9C344.918 14.642 345.786 15.013 346.906 15.013ZM358.746 1.615C358.144 1.615 357.682 1.776 357.36 2.098C357.038 2.42 356.877 2.994 356.877 3.82V5.479H359.586V6.508H356.877V16H355.596V6.508H353.538V5.479H355.596V3.589C355.596 2.539 355.855 1.755 356.373 1.237C356.891 0.719 357.605 0.46 358.515 0.46C358.935 0.46 359.369 0.515999 359.817 0.627999V1.783C359.439 1.671 359.082 1.615 358.746 1.615ZM365.637 1.615C365.035 1.615 364.573 1.776 364.251 2.098C363.929 2.42 363.768 2.994 363.768 3.82V5.479H366.477V6.508H363.768V16H362.487V6.508H360.429V5.479H362.487V3.589C362.487 2.539 362.746 1.755 363.264 1.237C363.782 0.719 364.496 0.46 365.406 0.46C365.826 0.46 366.26 0.515999 366.708 0.627999V1.783C366.33 1.671 365.973 1.615 365.637 1.615ZM372.889 16.147C371.923 16.147 371.069 15.923 370.327 15.475C369.599 15.027 369.032 14.39 368.626 13.564C368.234 12.738 368.038 11.779 368.038 10.687C368.038 9.595 368.234 8.636 368.626 7.81C369.032 6.984 369.599 6.347 370.327 5.899C371.069 5.451 371.923 5.227 372.889 5.227C373.841 5.227 374.681 5.451 375.409 5.899C376.137 6.347 376.697 6.984 377.089 7.81C377.495 8.636 377.698 9.595 377.698 10.687C377.698 11.779 377.495 12.738 377.089 13.564C376.697 14.39 376.137 15.027 375.409 15.475C374.681 15.923 373.841 16.147 372.889 16.147ZM372.868 15.013C373.988 15.013 374.849 14.642 375.451 13.9C376.067 13.144 376.375 12.073 376.375 10.687C376.375 9.315 376.067 8.251 375.451 7.495C374.835 6.725 373.981 6.34 372.889 6.34C371.783 6.34 370.922 6.725 370.306 7.495C369.69 8.251 369.382 9.315 369.382 10.687C369.382 12.087 369.683 13.158 370.285 13.9C370.887 14.642 371.748 15.013 372.868 15.013ZM385.038 5.227C385.388 5.227 385.696 5.255 385.962 5.311L385.899 6.466C385.633 6.41 385.311 6.382 384.933 6.382C383.869 6.382 383.071 6.725 382.539 7.411C382.021 8.083 381.762 8.888 381.762 9.826V16H380.502V8.398C380.502 7.306 380.446 6.333 380.334 5.479H381.552L381.72 7.432C381.986 6.718 382.413 6.172 383.001 5.794C383.603 5.416 384.282 5.227 385.038 5.227ZM396.543 0.543999V16H395.262V13.984C394.954 14.684 394.485 15.223 393.855 15.601C393.239 15.965 392.497 16.147 391.629 16.147C390.705 16.147 389.886 15.923 389.172 15.475C388.472 15.013 387.926 14.369 387.534 13.543C387.142 12.703 386.946 11.737 386.946 10.645C386.946 9.553 387.135 8.601 387.513 7.789C387.905 6.963 388.451 6.333 389.151 5.899C389.865 5.451 390.691 5.227 391.629 5.227C392.483 5.227 393.218 5.409 393.834 5.773C394.464 6.137 394.94 6.669 395.262 7.369V0.543999H396.543ZM391.797 15.013C392.903 15.013 393.757 14.635 394.359 13.879C394.961 13.123 395.262 12.059 395.262 10.687C395.262 9.315 394.961 8.251 394.359 7.495C393.757 6.725 392.91 6.34 391.818 6.34C390.698 6.34 389.83 6.718 389.214 7.474C388.598 8.23 388.29 9.287 388.29 10.645C388.29 12.017 388.598 13.088 389.214 13.858C389.83 14.628 390.691 15.013 391.797 15.013ZM408.95 5.479V16H407.669V13.984C407.361 14.684 406.892 15.223 406.262 15.601C405.646 15.965 404.904 16.147 404.036 16.147C403.098 16.147 402.272 15.93 401.558 15.496C400.858 15.048 400.312 14.418 399.92 13.606C399.542 12.78 399.353 11.821 399.353 10.729C399.353 9.637 399.549 8.678 399.941 7.852C400.333 7.012 400.879 6.368 401.579 5.92C402.293 5.458 403.112 5.227 404.036 5.227C404.89 5.227 405.625 5.409 406.241 5.773C406.871 6.137 407.347 6.669 407.669 7.369V5.479H408.95ZM404.225 15.013C405.317 15.013 406.164 14.635 406.766 13.879C407.368 13.123 407.669 12.059 407.669 10.687C407.669 9.301 407.368 8.23 406.766 7.474C406.164 6.718 405.31 6.34 404.204 6.34C403.098 6.34 402.237 6.732 401.621 7.516C401.005 8.286 400.697 9.357 400.697 10.729C400.697 12.087 401.005 13.144 401.621 13.9C402.237 14.642 403.105 15.013 404.225 15.013ZM417.346 5.227C418.27 5.227 419.089 5.451 419.803 5.899C420.517 6.347 421.063 6.977 421.441 7.789C421.833 8.601 422.029 9.553 422.029 10.645C422.029 11.737 421.833 12.703 421.441 13.543C421.049 14.369 420.496 15.013 419.782 15.475C419.082 15.923 418.27 16.147 417.346 16.147C416.478 16.147 415.729 15.958 415.099 15.58C414.483 15.202 414.021 14.656 413.713 13.942V16H412.432V0.543999H413.692V7.453C414 6.725 414.469 6.172 415.099 5.794C415.729 5.416 416.478 5.227 417.346 5.227ZM417.199 15.013C418.291 15.013 419.145 14.628 419.761 13.858C420.377 13.088 420.685 12.017 420.685 10.645C420.685 9.287 420.377 8.23 419.761 7.474C419.145 6.718 418.284 6.34 417.178 6.34C416.072 6.34 415.218 6.718 414.616 7.474C414.014 8.23 413.713 9.301 413.713 10.687C413.713 12.073 414.014 13.144 414.616 13.9C415.218 14.642 416.079 15.013 417.199 15.013ZM424.84 0.543999H426.1V16H424.84V0.543999ZM430.29 10.582V10.645C430.29 12.059 430.612 13.144 431.256 13.9C431.914 14.642 432.866 15.013 434.112 15.013C435.372 15.013 436.527 14.579 437.577 13.711L438.081 14.719C437.619 15.153 437.031 15.503 436.317 15.769C435.603 16.021 434.868 16.147 434.112 16.147C432.516 16.147 431.256 15.664 430.332 14.698C429.408 13.732 428.946 12.402 428.946 10.708C428.946 9.63 429.149 8.678 429.555 7.852C429.975 7.012 430.556 6.368 431.298 5.92C432.04 5.458 432.894 5.227 433.86 5.227C435.246 5.227 436.324 5.675 437.094 6.571C437.878 7.467 438.27 8.713 438.27 10.309V10.582H430.29ZM433.86 6.277C432.894 6.277 432.11 6.571 431.508 7.159C430.906 7.733 430.528 8.545 430.374 9.595H437.052C436.968 8.517 436.653 7.698 436.107 7.138C435.561 6.564 434.812 6.277 433.86 6.277ZM6.636 37.227C9.17 37.227 10.437 38.585 10.437 41.301V48H9.156V41.385C9.156 40.335 8.939 39.565 8.505 39.075C8.085 38.585 7.42 38.34 6.51 38.34C5.46 38.34 4.613 38.662 3.969 39.306C3.325 39.95 3.003 40.818 3.003 41.91V48H1.743V32.544H3.003V39.306C3.339 38.62 3.822 38.102 4.452 37.752C5.082 37.402 5.81 37.227 6.636 37.227ZM14.5556 42.582V42.645C14.5556 44.059 14.8776 45.144 15.5216 45.9C16.1796 46.642 17.1316 47.013 18.3776 47.013C19.6376 47.013 20.7926 46.579 21.8426 45.711L22.3466 46.719C21.8846 47.153 21.2966 47.503 20.5826 47.769C19.8686 48.021 19.1336 48.147 18.3776 48.147C16.7816 48.147 15.5216 47.664 14.5976 46.698C13.6736 45.732 13.2116 44.402 13.2116 42.708C13.2116 41.63 13.4146 40.678 13.8206 39.852C14.2406 39.012 14.8216 38.368 15.5636 37.92C16.3056 37.458 17.1596 37.227 18.1256 37.227C19.5116 37.227 20.5896 37.675 21.3596 38.571C22.1436 39.467 22.5356 40.713 22.5356 42.309V42.582H14.5556ZM18.1256 38.277C17.1596 38.277 16.3756 38.571 15.7736 39.159C15.1716 39.733 14.7936 40.545 14.6396 41.595H21.3176C21.2336 40.517 20.9186 39.698 20.3726 39.138C19.8266 38.564 19.0776 38.277 18.1256 38.277ZM34.211 37.479V48H32.93V45.984C32.622 46.684 32.153 47.223 31.523 47.601C30.907 47.965 30.165 48.147 29.297 48.147C28.359 48.147 27.533 47.93 26.819 47.496C26.119 47.048 25.573 46.418 25.181 45.606C24.803 44.78 24.614 43.821 24.614 42.729C24.614 41.637 24.81 40.678 25.202 39.852C25.594 39.012 26.14 38.368 26.84 37.92C27.554 37.458 28.373 37.227 29.297 37.227C30.151 37.227 30.886 37.409 31.502 37.773C32.132 38.137 32.608 38.669 32.93 39.369V37.479H34.211ZM29.486 47.013C30.578 47.013 31.425 46.635 32.027 45.879C32.629 45.123 32.93 44.059 32.93 42.687C32.93 41.301 32.629 40.23 32.027 39.474C31.425 38.718 30.571 38.34 29.465 38.34C28.359 38.34 27.498 38.732 26.882 39.516C26.266 40.286 25.958 41.357 25.958 42.729C25.958 44.087 26.266 45.144 26.882 45.9C27.498 46.642 28.366 47.013 29.486 47.013ZM37.6932 32.544H38.9532V48H37.6932V32.544ZM44.2565 38.508V44.766C44.2565 45.606 44.4175 46.187 44.7395 46.509C45.0615 46.831 45.5375 46.992 46.1675 46.992C46.5595 46.992 46.9375 46.929 47.3015 46.803V47.958C46.8535 48.07 46.3985 48.126 45.9365 48.126C45.0125 48.126 44.2845 47.867 43.7525 47.349C43.2345 46.831 42.9755 46.054 42.9755 45.018V38.508H40.8965V37.479H42.9755V34.686L44.2565 34.203V37.479H47.3645V38.508H44.2565ZM54.4397 37.227C56.9737 37.227 58.2407 38.585 58.2407 41.301V48H56.9597V41.385C56.9597 40.335 56.7427 39.565 56.3087 39.075C55.8887 38.585 55.2237 38.34 54.3137 38.34C53.2637 38.34 52.4167 38.662 51.7727 39.306C51.1287 39.95 50.8067 40.818 50.8067 41.91V48H49.5467V32.544H50.8067V39.306C51.1427 38.62 51.6257 38.102 52.2557 37.752C52.8857 37.402 53.6137 37.227 54.4397 37.227ZM65.9503 48.147C64.9563 48.147 64.0883 47.923 63.3463 47.475C62.6043 47.027 62.0303 46.397 61.6243 45.585C61.2183 44.759 61.0153 43.807 61.0153 42.729C61.0153 41.637 61.2183 40.678 61.6243 39.852C62.0303 39.012 62.6113 38.368 63.3673 37.92C64.1233 37.458 64.9983 37.227 65.9923 37.227C66.7063 37.227 67.3853 37.353 68.0293 37.605C68.6873 37.843 69.2263 38.179 69.6463 38.613L69.1423 39.621C68.5963 39.173 68.0713 38.851 67.5673 38.655C67.0773 38.445 66.5663 38.34 66.0343 38.34C64.9003 38.34 64.0043 38.732 63.3463 39.516C62.6883 40.286 62.3593 41.357 62.3593 42.729C62.3593 44.073 62.6813 45.123 63.3253 45.879C63.9833 46.635 64.8863 47.013 66.0343 47.013C66.5663 47.013 67.0773 46.915 67.5673 46.719C68.0713 46.509 68.5963 46.187 69.1423 45.753L69.6463 46.74C69.1983 47.174 68.6383 47.517 67.9663 47.769C67.3083 48.021 66.6363 48.147 65.9503 48.147ZM80.9073 37.479V48H79.6263V45.984C79.3183 46.684 78.8493 47.223 78.2193 47.601C77.6033 47.965 76.8613 48.147 75.9933 48.147C75.0553 48.147 74.2293 47.93 73.5153 47.496C72.8153 47.048 72.2693 46.418 71.8773 45.606C71.4993 44.78 71.3103 43.821 71.3103 42.729C71.3103 41.637 71.5063 40.678 71.8983 39.852C72.2903 39.012 72.8363 38.368 73.5363 37.92C74.2503 37.458 75.0693 37.227 75.9933 37.227C76.8473 37.227 77.5823 37.409 78.1983 37.773C78.8283 38.137 79.3043 38.669 79.6263 39.369V37.479H80.9073ZM76.1823 47.013C77.2743 47.013 78.1213 46.635 78.7233 45.879C79.3253 45.123 79.6263 44.059 79.6263 42.687C79.6263 41.301 79.3253 40.23 78.7233 39.474C78.1213 38.718 77.2673 38.34 76.1613 38.34C75.0553 38.34 74.1943 38.732 73.5783 39.516C72.9623 40.286 72.6543 41.357 72.6543 42.729C72.6543 44.087 72.9623 45.144 73.5783 45.9C74.1943 46.642 75.0623 47.013 76.1823 47.013ZM88.9255 37.227C89.2755 37.227 89.5835 37.255 89.8495 37.311L89.7865 38.466C89.5205 38.41 89.1985 38.382 88.8205 38.382C87.7565 38.382 86.9585 38.725 86.4265 39.411C85.9085 40.083 85.6495 40.888 85.6495 41.826V48H84.3895V40.398C84.3895 39.306 84.3335 38.333 84.2215 37.479H85.4395L85.6075 39.432C85.8735 38.718 86.3005 38.172 86.8885 37.794C87.4905 37.416 88.1695 37.227 88.9255 37.227ZM92.1777 42.582V42.645C92.1777 44.059 92.4997 45.144 93.1437 45.9C93.8017 46.642 94.7537 47.013 95.9997 47.013C97.2597 47.013 98.4147 46.579 99.4647 45.711L99.9687 46.719C99.5067 47.153 98.9187 47.503 98.2047 47.769C97.4907 48.021 96.7557 48.147 95.9997 48.147C94.4037 48.147 93.1437 47.664 92.2197 46.698C91.2957 45.732 90.8337 44.402 90.8337 42.708C90.8337 41.63 91.0367 40.678 91.4427 39.852C91.8627 39.012 92.4437 38.368 93.1857 37.92C93.9277 37.458 94.7817 37.227 95.7477 37.227C97.1337 37.227 98.2117 37.675 98.9817 38.571C99.7657 39.467 100.158 40.713 100.158 42.309V42.582H92.1777ZM95.7477 38.277C94.7817 38.277 93.9977 38.571 93.3957 39.159C92.7937 39.733 92.4157 40.545 92.2617 41.595H98.9397C98.8557 40.517 98.5407 39.698 97.9947 39.138C97.4487 38.564 96.6997 38.277 95.7477 38.277ZM104.399 46.173V47.517C104.399 48.049 104.315 48.539 104.147 48.987C103.979 49.435 103.699 49.855 103.307 50.247L102.635 49.722C103.111 49.19 103.377 48.616 103.433 48H102.614V46.173H104.399ZM121.841 37.479V48H120.56V45.984C120.252 46.684 119.783 47.223 119.153 47.601C118.537 47.965 117.795 48.147 116.927 48.147C115.989 48.147 115.163 47.93 114.449 47.496C113.749 47.048 113.203 46.418 112.811 45.606C112.433 44.78 112.244 43.821 112.244 42.729C112.244 41.637 112.44 40.678 112.832 39.852C113.224 39.012 113.77 38.368 114.47 37.92C115.184 37.458 116.003 37.227 116.927 37.227C117.781 37.227 118.516 37.409 119.132 37.773C119.762 38.137 120.238 38.669 120.56 39.369V37.479H121.841ZM117.116 47.013C118.208 47.013 119.055 46.635 119.657 45.879C120.259 45.123 120.56 44.059 120.56 42.687C120.56 41.301 120.259 40.23 119.657 39.474C119.055 38.718 118.201 38.34 117.095 38.34C115.989 38.34 115.128 38.732 114.512 39.516C113.896 40.286 113.588 41.357 113.588 42.729C113.588 44.087 113.896 45.144 114.512 45.9C115.128 46.642 115.996 47.013 117.116 47.013ZM129.586 48.147C128.592 48.147 127.724 47.923 126.982 47.475C126.24 47.027 125.666 46.397 125.26 45.585C124.854 44.759 124.651 43.807 124.651 42.729C124.651 41.637 124.854 40.678 125.26 39.852C125.666 39.012 126.247 38.368 127.003 37.92C127.759 37.458 128.634 37.227 129.628 37.227C130.342 37.227 131.021 37.353 131.665 37.605C132.323 37.843 132.862 38.179 133.282 38.613L132.778 39.621C132.232 39.173 131.707 38.851 131.203 38.655C130.713 38.445 130.202 38.34 129.67 38.34C128.536 38.34 127.64 38.732 126.982 39.516C126.324 40.286 125.995 41.357 125.995 42.729C125.995 44.073 126.317 45.123 126.961 45.879C127.619 46.635 128.522 47.013 129.67 47.013C130.202 47.013 130.713 46.915 131.203 46.719C131.707 46.509 132.232 46.187 132.778 45.753L133.282 46.74C132.834 47.174 132.274 47.517 131.602 47.769C130.944 48.021 130.272 48.147 129.586 48.147ZM139.881 48.147C138.887 48.147 138.019 47.923 137.277 47.475C136.535 47.027 135.961 46.397 135.555 45.585C135.149 44.759 134.946 43.807 134.946 42.729C134.946 41.637 135.149 40.678 135.555 39.852C135.961 39.012 136.542 38.368 137.298 37.92C138.054 37.458 138.929 37.227 139.923 37.227C140.637 37.227 141.316 37.353 141.96 37.605C142.618 37.843 143.157 38.179 143.577 38.613L143.073 39.621C142.527 39.173 142.002 38.851 141.498 38.655C141.008 38.445 140.497 38.34 139.965 38.34C138.831 38.34 137.935 38.732 137.277 39.516C136.619 40.286 136.29 41.357 136.29 42.729C136.29 44.073 136.612 45.123 137.256 45.879C137.914 46.635 138.817 47.013 139.965 47.013C140.497 47.013 141.008 46.915 141.498 46.719C142.002 46.509 142.527 46.187 143.073 45.753L143.577 46.74C143.129 47.174 142.569 47.517 141.897 47.769C141.239 48.021 140.567 48.147 139.881 48.147ZM146.585 42.582V42.645C146.585 44.059 146.907 45.144 147.551 45.9C148.209 46.642 149.161 47.013 150.407 47.013C151.667 47.013 152.822 46.579 153.872 45.711L154.376 46.719C153.914 47.153 153.326 47.503 152.612 47.769C151.898 48.021 151.163 48.147 150.407 48.147C148.811 48.147 147.551 47.664 146.627 46.698C145.703 45.732 145.241 44.402 145.241 42.708C145.241 41.63 145.444 40.678 145.85 39.852C146.27 39.012 146.851 38.368 147.593 37.92C148.335 37.458 149.189 37.227 150.155 37.227C151.541 37.227 152.619 37.675 153.389 38.571C154.173 39.467 154.565 40.713 154.565 42.309V42.582H146.585ZM150.155 38.277C149.189 38.277 148.405 38.571 147.803 39.159C147.201 39.733 146.823 40.545 146.669 41.595H153.347C153.263 40.517 152.948 39.698 152.402 39.138C151.856 38.564 151.107 38.277 150.155 38.277ZM160.738 48.147C159.03 48.147 157.679 47.678 156.685 46.74L157.147 45.753C157.707 46.215 158.267 46.544 158.827 46.74C159.401 46.936 160.059 47.034 160.801 47.034C161.669 47.034 162.327 46.887 162.775 46.593C163.237 46.285 163.468 45.844 163.468 45.27C163.468 44.794 163.314 44.423 163.006 44.157C162.712 43.877 162.222 43.653 161.536 43.485L159.751 43.086C158.911 42.89 158.246 42.54 157.756 42.036C157.28 41.532 157.042 40.944 157.042 40.272C157.042 39.348 157.392 38.613 158.092 38.067C158.806 37.507 159.751 37.227 160.927 37.227C161.669 37.227 162.355 37.346 162.985 37.584C163.629 37.822 164.161 38.165 164.581 38.613L164.098 39.6C163.132 38.76 162.075 38.34 160.927 38.34C160.115 38.34 159.485 38.501 159.037 38.823C158.589 39.145 158.365 39.593 158.365 40.167C158.365 40.643 158.505 41.028 158.785 41.322C159.079 41.616 159.527 41.833 160.129 41.973L161.935 42.414C163.825 42.834 164.77 43.765 164.77 45.207C164.77 46.089 164.406 46.803 163.678 47.349C162.95 47.881 161.97 48.147 160.738 48.147ZM171.115 48.147C169.407 48.147 168.056 47.678 167.062 46.74L167.524 45.753C168.084 46.215 168.644 46.544 169.204 46.74C169.778 46.936 170.436 47.034 171.178 47.034C172.046 47.034 172.704 46.887 173.152 46.593C173.614 46.285 173.845 45.844 173.845 45.27C173.845 44.794 173.691 44.423 173.383 44.157C173.089 43.877 172.599 43.653 171.913 43.485L170.128 43.086C169.288 42.89 168.623 42.54 168.133 42.036C167.657 41.532 167.419 40.944 167.419 40.272C167.419 39.348 167.769 38.613 168.469 38.067C169.183 37.507 170.128 37.227 171.304 37.227C172.046 37.227 172.732 37.346 173.362 37.584C174.006 37.822 174.538 38.165 174.958 38.613L174.475 39.6C173.509 38.76 172.452 38.34 171.304 38.34C170.492 38.34 169.862 38.501 169.414 38.823C168.966 39.145 168.742 39.593 168.742 40.167C168.742 40.643 168.882 41.028 169.162 41.322C169.456 41.616 169.904 41.833 170.506 41.973L172.312 42.414C174.202 42.834 175.147 43.765 175.147 45.207C175.147 46.089 174.783 46.803 174.055 47.349C173.327 47.881 172.347 48.147 171.115 48.147ZM178.069 37.479H179.329V48H178.069V37.479ZM179.581 33.132V34.77H177.88V33.132H179.581ZM187.761 37.227C188.685 37.227 189.504 37.451 190.218 37.899C190.932 38.347 191.478 38.977 191.856 39.789C192.248 40.601 192.444 41.553 192.444 42.645C192.444 43.737 192.248 44.703 191.856 45.543C191.464 46.369 190.911 47.013 190.197 47.475C189.497 47.923 188.685 48.147 187.761 48.147C186.893 48.147 186.144 47.958 185.514 47.58C184.898 47.202 184.436 46.656 184.128 45.942V48H182.847V32.544H184.107V39.453C184.415 38.725 184.884 38.172 185.514 37.794C186.144 37.416 186.893 37.227 187.761 37.227ZM187.614 47.013C188.706 47.013 189.56 46.628 190.176 45.858C190.792 45.088 191.1 44.017 191.1 42.645C191.1 41.287 190.792 40.23 190.176 39.474C189.56 38.718 188.699 38.34 187.593 38.34C186.487 38.34 185.633 38.718 185.031 39.474C184.429 40.23 184.128 41.301 184.128 42.687C184.128 44.073 184.429 45.144 185.031 45.9C185.633 46.642 186.494 47.013 187.614 47.013ZM195.255 32.544H196.515V48H195.255V32.544ZM200.705 42.582V42.645C200.705 44.059 201.027 45.144 201.671 45.9C202.329 46.642 203.281 47.013 204.527 47.013C205.787 47.013 206.942 46.579 207.992 45.711L208.496 46.719C208.034 47.153 207.446 47.503 206.732 47.769C206.018 48.021 205.283 48.147 204.527 48.147C202.931 48.147 201.671 47.664 200.747 46.698C199.823 45.732 199.361 44.402 199.361 42.708C199.361 41.63 199.564 40.678 199.97 39.852C200.39 39.012 200.971 38.368 201.713 37.92C202.455 37.458 203.309 37.227 204.275 37.227C205.661 37.227 206.739 37.675 207.509 38.571C208.293 39.467 208.685 40.713 208.685 42.309V42.582H200.705ZM204.275 38.277C203.309 38.277 202.525 38.571 201.923 39.159C201.321 39.733 200.943 40.545 200.789 41.595H207.467C207.383 40.517 207.068 39.698 206.522 39.138C205.976 38.564 205.227 38.277 204.275 38.277ZM220.967 48.147C220.001 48.147 219.147 47.923 218.405 47.475C217.677 47.027 217.11 46.39 216.704 45.564C216.312 44.738 216.116 43.779 216.116 42.687C216.116 41.595 216.312 40.636 216.704 39.81C217.11 38.984 217.677 38.347 218.405 37.899C219.147 37.451 220.001 37.227 220.967 37.227C221.919 37.227 222.759 37.451 223.487 37.899C224.215 38.347 224.775 38.984 225.167 39.81C225.573 40.636 225.776 41.595 225.776 42.687C225.776 43.779 225.573 44.738 225.167 45.564C224.775 46.39 224.215 47.027 223.487 47.475C222.759 47.923 221.919 48.147 220.967 48.147ZM220.946 47.013C222.066 47.013 222.927 46.642 223.529 45.9C224.145 45.144 224.453 44.073 224.453 42.687C224.453 41.315 224.145 40.251 223.529 39.495C222.913 38.725 222.059 38.34 220.967 38.34C219.861 38.34 219 38.725 218.384 39.495C217.768 40.251 217.46 41.315 217.46 42.687C217.46 44.087 217.761 45.158 218.363 45.9C218.965 46.642 219.826 47.013 220.946 47.013ZM233.473 37.227C236.007 37.227 237.274 38.585 237.274 41.301V48H235.993V41.385C235.993 40.335 235.776 39.565 235.342 39.075C234.922 38.585 234.257 38.34 233.347 38.34C232.297 38.34 231.45 38.662 230.806 39.306C230.162 39.95 229.84 40.818 229.84 41.91V48H228.58V40.398C228.58 39.306 228.524 38.333 228.412 37.479H229.63L229.798 39.411C230.12 38.697 230.603 38.158 231.247 37.794C231.891 37.416 232.633 37.227 233.473 37.227ZM257.413 37.227C259.737 37.227 260.899 38.585 260.899 41.301V48H259.618V41.385C259.618 40.321 259.429 39.551 259.051 39.075C258.673 38.585 258.071 38.34 257.245 38.34C256.279 38.34 255.516 38.662 254.956 39.306C254.41 39.95 254.137 40.825 254.137 41.931V48H252.856V41.385C252.856 40.321 252.66 39.551 252.268 39.075C251.89 38.585 251.288 38.34 250.462 38.34C249.51 38.34 248.747 38.662 248.173 39.306C247.613 39.95 247.333 40.825 247.333 41.931V48H246.073V40.398C246.073 39.306 246.017 38.333 245.905 37.479H247.123L247.291 39.369C247.585 38.669 248.019 38.137 248.593 37.773C249.181 37.409 249.86 37.227 250.63 37.227C252.324 37.227 253.409 37.913 253.885 39.285C254.179 38.641 254.634 38.137 255.25 37.773C255.88 37.409 256.601 37.227 257.413 37.227ZM268.504 48.147C267.538 48.147 266.684 47.923 265.942 47.475C265.214 47.027 264.647 46.39 264.241 45.564C263.849 44.738 263.653 43.779 263.653 42.687C263.653 41.595 263.849 40.636 264.241 39.81C264.647 38.984 265.214 38.347 265.942 37.899C266.684 37.451 267.538 37.227 268.504 37.227C269.456 37.227 270.296 37.451 271.024 37.899C271.752 38.347 272.312 38.984 272.704 39.81C273.11 40.636 273.313 41.595 273.313 42.687C273.313 43.779 273.11 44.738 272.704 45.564C272.312 46.39 271.752 47.027 271.024 47.475C270.296 47.923 269.456 48.147 268.504 48.147ZM268.483 47.013C269.603 47.013 270.464 46.642 271.066 45.9C271.682 45.144 271.99 44.073 271.99 42.687C271.99 41.315 271.682 40.251 271.066 39.495C270.45 38.725 269.596 38.34 268.504 38.34C267.398 38.34 266.537 38.725 265.921 39.495C265.305 40.251 264.997 41.315 264.997 42.687C264.997 44.087 265.298 45.158 265.9 45.9C266.502 46.642 267.363 47.013 268.483 47.013ZM281.031 37.227C281.955 37.227 282.774 37.451 283.488 37.899C284.202 38.347 284.748 38.977 285.126 39.789C285.518 40.601 285.714 41.553 285.714 42.645C285.714 43.737 285.518 44.703 285.126 45.543C284.734 46.369 284.181 47.013 283.467 47.475C282.767 47.923 281.955 48.147 281.031 48.147C280.163 48.147 279.414 47.958 278.784 47.58C278.168 47.202 277.706 46.656 277.398 45.942V48H276.117V32.544H277.377V39.453C277.685 38.725 278.154 38.172 278.784 37.794C279.414 37.416 280.163 37.227 281.031 37.227ZM280.884 47.013C281.976 47.013 282.83 46.628 283.446 45.858C284.062 45.088 284.37 44.017 284.37 42.645C284.37 41.287 284.062 40.23 283.446 39.474C282.83 38.718 281.969 38.34 280.863 38.34C279.757 38.34 278.903 38.718 278.301 39.474C277.699 40.23 277.398 41.301 277.398 42.687C277.398 44.073 277.699 45.144 278.301 45.9C278.903 46.642 279.764 47.013 280.884 47.013ZM288.524 37.479H289.784V48H288.524V37.479ZM290.036 33.132V34.77H288.335V33.132H290.036ZM293.303 32.544H294.563V48H293.303V32.544ZM298.753 42.582V42.645C298.753 44.059 299.075 45.144 299.719 45.9C300.377 46.642 301.329 47.013 302.575 47.013C303.835 47.013 304.99 46.579 306.04 45.711L306.544 46.719C306.082 47.153 305.494 47.503 304.78 47.769C304.066 48.021 303.331 48.147 302.575 48.147C300.979 48.147 299.719 47.664 298.795 46.698C297.871 45.732 297.409 44.402 297.409 42.708C297.409 41.63 297.612 40.678 298.018 39.852C298.438 39.012 299.019 38.368 299.761 37.92C300.503 37.458 301.357 37.227 302.323 37.227C303.709 37.227 304.787 37.675 305.557 38.571C306.341 39.467 306.733 40.713 306.733 42.309V42.582H298.753ZM302.323 38.277C301.357 38.277 300.573 38.571 299.971 39.159C299.369 39.733 298.991 40.545 298.837 41.595H305.515C305.431 40.517 305.116 39.698 304.57 39.138C304.024 38.564 303.275 38.277 302.323 38.277ZM323.761 37.479V48H322.48V45.984C322.172 46.684 321.703 47.223 321.073 47.601C320.457 47.965 319.715 48.147 318.847 48.147C317.909 48.147 317.083 47.93 316.369 47.496C315.669 47.048 315.123 46.418 314.731 45.606C314.353 44.78 314.164 43.821 314.164 42.729C314.164 41.637 314.36 40.678 314.752 39.852C315.144 39.012 315.69 38.368 316.39 37.92C317.104 37.458 317.923 37.227 318.847 37.227C319.701 37.227 320.436 37.409 321.052 37.773C321.682 38.137 322.158 38.669 322.48 39.369V37.479H323.761ZM319.036 47.013C320.128 47.013 320.975 46.635 321.577 45.879C322.179 45.123 322.48 44.059 322.48 42.687C322.48 41.301 322.179 40.23 321.577 39.474C320.975 38.718 320.121 38.34 319.015 38.34C317.909 38.34 317.048 38.732 316.432 39.516C315.816 40.286 315.508 41.357 315.508 42.729C315.508 44.087 315.816 45.144 316.432 45.9C317.048 46.642 317.916 47.013 319.036 47.013ZM332.136 37.227C334.67 37.227 335.937 38.585 335.937 41.301V48H334.656V41.385C334.656 40.335 334.439 39.565 334.005 39.075C333.585 38.585 332.92 38.34 332.01 38.34C330.96 38.34 330.113 38.662 329.469 39.306C328.825 39.95 328.503 40.818 328.503 41.91V48H327.243V40.398C327.243 39.306 327.187 38.333 327.075 37.479H328.293L328.461 39.411C328.783 38.697 329.266 38.158 329.91 37.794C330.554 37.416 331.296 37.227 332.136 37.227ZM348.309 32.544V48H347.028V45.984C346.72 46.684 346.251 47.223 345.621 47.601C345.005 47.965 344.263 48.147 343.395 48.147C342.471 48.147 341.652 47.923 340.938 47.475C340.238 47.013 339.692 46.369 339.3 45.543C338.908 44.703 338.712 43.737 338.712 42.645C338.712 41.553 338.901 40.601 339.279 39.789C339.671 38.963 340.217 38.333 340.917 37.899C341.631 37.451 342.457 37.227 343.395 37.227C344.249 37.227 344.984 37.409 345.6 37.773C346.23 38.137 346.706 38.669 347.028 39.369V32.544H348.309ZM343.563 47.013C344.669 47.013 345.523 46.635 346.125 45.879C346.727 45.123 347.028 44.059 347.028 42.687C347.028 41.315 346.727 40.251 346.125 39.495C345.523 38.725 344.676 38.34 343.584 38.34C342.464 38.34 341.596 38.718 340.98 39.474C340.364 40.23 340.056 41.287 340.056 42.645C340.056 44.017 340.364 45.088 340.98 45.858C341.596 46.628 342.457 47.013 343.563 47.013ZM361.322 48.147C360.356 48.147 359.502 47.923 358.76 47.475C358.032 47.027 357.465 46.39 357.059 45.564C356.667 44.738 356.471 43.779 356.471 42.687C356.471 41.595 356.667 40.636 357.059 39.81C357.465 38.984 358.032 38.347 358.76 37.899C359.502 37.451 360.356 37.227 361.322 37.227C362.274 37.227 363.114 37.451 363.842 37.899C364.57 38.347 365.13 38.984 365.522 39.81C365.928 40.636 366.131 41.595 366.131 42.687C366.131 43.779 365.928 44.738 365.522 45.564C365.13 46.39 364.57 47.027 363.842 47.475C363.114 47.923 362.274 48.147 361.322 48.147ZM361.301 47.013C362.421 47.013 363.282 46.642 363.884 45.9C364.5 45.144 364.808 44.073 364.808 42.687C364.808 41.315 364.5 40.251 363.884 39.495C363.268 38.725 362.414 38.34 361.322 38.34C360.216 38.34 359.355 38.725 358.739 39.495C358.123 40.251 357.815 41.315 357.815 42.687C357.815 44.087 358.116 45.158 358.718 45.9C359.32 46.642 360.181 47.013 361.301 47.013ZM373.828 37.227C376.362 37.227 377.629 38.585 377.629 41.301V48H376.348V41.385C376.348 40.335 376.131 39.565 375.697 39.075C375.277 38.585 374.612 38.34 373.702 38.34C372.652 38.34 371.805 38.662 371.161 39.306C370.517 39.95 370.195 40.818 370.195 41.91V48H368.935V40.398C368.935 39.306 368.879 38.333 368.767 37.479H369.985L370.153 39.411C370.475 38.697 370.958 38.158 371.602 37.794C372.246 37.416 372.988 37.227 373.828 37.227ZM381.076 32.544H382.336V48H381.076V32.544ZM385.854 37.479H387.114V48H385.854V37.479ZM387.366 33.132V34.77H385.665V33.132H387.366ZM395.526 37.227C398.06 37.227 399.327 38.585 399.327 41.301V48H398.046V41.385C398.046 40.335 397.829 39.565 397.395 39.075C396.975 38.585 396.31 38.34 395.4 38.34C394.35 38.34 393.503 38.662 392.859 39.306C392.215 39.95 391.893 40.818 391.893 41.91V48H390.633V40.398C390.633 39.306 390.577 38.333 390.465 37.479H391.683L391.851 39.411C392.173 38.697 392.656 38.158 393.3 37.794C393.944 37.416 394.686 37.227 395.526 37.227ZM403.445 42.582V42.645C403.445 44.059 403.767 45.144 404.411 45.9C405.069 46.642 406.021 47.013 407.267 47.013C408.527 47.013 409.682 46.579 410.732 45.711L411.236 46.719C410.774 47.153 410.186 47.503 409.472 47.769C408.758 48.021 408.023 48.147 407.267 48.147C405.671 48.147 404.411 47.664 403.487 46.698C402.563 45.732 402.101 44.402 402.101 42.708C402.101 41.63 402.304 40.678 402.71 39.852C403.13 39.012 403.711 38.368 404.453 37.92C405.195 37.458 406.049 37.227 407.015 37.227C408.401 37.227 409.479 37.675 410.249 38.571C411.033 39.467 411.425 40.713 411.425 42.309V42.582H403.445ZM407.015 38.277C406.049 38.277 405.265 38.571 404.663 39.159C404.061 39.733 403.683 40.545 403.529 41.595H410.207C410.123 40.517 409.808 39.698 409.262 39.138C408.716 38.564 407.967 38.277 407.015 38.277ZM5.376 65.615C4.774 65.615 4.312 65.776 3.99 66.098C3.668 66.42 3.507 66.994 3.507 67.82V69.479H6.216V70.508H3.507V80H2.226V70.508H0.168V69.479H2.226V67.589C2.226 66.539 2.485 65.755 3.003 65.237C3.521 64.719 4.235 64.46 5.145 64.46C5.565 64.46 5.999 64.516 6.447 64.628V65.783C6.069 65.671 5.712 65.615 5.376 65.615ZM12.6281 80.147C11.6621 80.147 10.8081 79.923 10.0661 79.475C9.33805 79.027 8.77105 78.39 8.36505 77.564C7.97305 76.738 7.77705 75.779 7.77705 74.687C7.77705 73.595 7.97305 72.636 8.36505 71.81C8.77105 70.984 9.33805 70.347 10.0661 69.899C10.8081 69.451 11.6621 69.227 12.6281 69.227C13.5801 69.227 14.4201 69.451 15.1481 69.899C15.8761 70.347 16.4361 70.984 16.8281 71.81C17.2341 72.636 17.4371 73.595 17.4371 74.687C17.4371 75.779 17.2341 76.738 16.8281 77.564C16.4361 78.39 15.8761 79.027 15.1481 79.475C14.4201 79.923 13.5801 80.147 12.6281 80.147ZM12.6071 79.013C13.7271 79.013 14.5881 78.642 15.1901 77.9C15.8061 77.144 16.1141 76.073 16.1141 74.687C16.1141 73.315 15.8061 72.251 15.1901 71.495C14.5741 70.725 13.7201 70.34 12.6281 70.34C11.5221 70.34 10.6611 70.725 10.0451 71.495C9.42905 72.251 9.12105 73.315 9.12105 74.687C9.12105 76.087 9.42205 77.158 10.0241 77.9C10.6261 78.642 11.4871 79.013 12.6071 79.013ZM24.777 69.227C25.127 69.227 25.435 69.255 25.701 69.311L25.638 70.466C25.372 70.41 25.05 70.382 24.672 70.382C23.608 70.382 22.81 70.725 22.278 71.411C21.76 72.083 21.501 72.888 21.501 73.826V80H20.241V72.398C20.241 71.306 20.185 70.333 20.073 69.479H21.291L21.459 71.432C21.725 70.718 22.152 70.172 22.74 69.794C23.342 69.416 24.021 69.227 24.777 69.227ZM33.5869 74.582V74.645C33.5869 76.059 33.9089 77.144 34.5529 77.9C35.2109 78.642 36.1629 79.013 37.4089 79.013C38.6689 79.013 39.8239 78.579 40.8739 77.711L41.3779 78.719C40.9159 79.153 40.3279 79.503 39.6139 79.769C38.8999 80.021 38.1649 80.147 37.4089 80.147C35.8129 80.147 34.5529 79.664 33.6289 78.698C32.7049 77.732 32.2429 76.402 32.2429 74.708C32.2429 73.63 32.4459 72.678 32.8519 71.852C33.2719 71.012 33.8529 70.368 34.5949 69.92C35.3369 69.458 36.1909 69.227 37.1569 69.227C38.5429 69.227 39.6209 69.675 40.3909 70.571C41.1749 71.467 41.5669 72.713 41.5669 74.309V74.582H33.5869ZM37.1569 70.277C36.1909 70.277 35.4069 70.571 34.8049 71.159C34.2029 71.733 33.8249 72.545 33.6709 73.595H40.3489C40.2649 72.517 39.9499 71.698 39.4039 71.138C38.8579 70.564 38.1089 70.277 37.1569 70.277ZM53.1397 69.479L48.6247 80H47.3017L42.8497 69.479H44.2147L48.0157 78.719L51.8377 69.479H53.1397ZM55.8173 74.582V74.645C55.8173 76.059 56.1393 77.144 56.7833 77.9C57.4413 78.642 58.3933 79.013 59.6393 79.013C60.8993 79.013 62.0543 78.579 63.1043 77.711L63.6083 78.719C63.1463 79.153 62.5583 79.503 61.8443 79.769C61.1303 80.021 60.3953 80.147 59.6393 80.147C58.0433 80.147 56.7833 79.664 55.8593 78.698C54.9353 77.732 54.4733 76.402 54.4733 74.708C54.4733 73.63 54.6763 72.678 55.0823 71.852C55.5023 71.012 56.0833 70.368 56.8253 69.92C57.5673 69.458 58.4213 69.227 59.3873 69.227C60.7733 69.227 61.8513 69.675 62.6213 70.571C63.4053 71.467 63.7973 72.713 63.7973 74.309V74.582H55.8173ZM59.3873 70.277C58.4213 70.277 57.6373 70.571 57.0353 71.159C56.4333 71.733 56.0553 72.545 55.9013 73.595H62.5793C62.4953 72.517 62.1803 71.698 61.6343 71.138C61.0883 70.564 60.3393 70.277 59.3873 70.277ZM71.0837 69.227C71.4337 69.227 71.7417 69.255 72.0077 69.311L71.9447 70.466C71.6787 70.41 71.3567 70.382 70.9787 70.382C69.9147 70.382 69.1167 70.725 68.5847 71.411C68.0667 72.083 67.8077 72.888 67.8077 73.826V80H66.5477V72.398C66.5477 71.306 66.4917 70.333 66.3797 69.479H67.5977L67.7657 71.432C68.0317 70.718 68.4587 70.172 69.0467 69.794C69.6487 69.416 70.3277 69.227 71.0837 69.227ZM83.4297 69.479L78.4737 81.092C77.9837 82.24 77.3677 83.08 76.6257 83.612C75.8977 84.158 74.9807 84.543 73.8747 84.767L73.6227 83.759C74.6307 83.521 75.3867 83.213 75.8907 82.835C76.4087 82.457 76.8427 81.862 77.1927 81.05L77.6337 80.021L73.1397 69.479H74.5047L78.3057 78.719L82.1277 69.479H83.4297ZM89.6144 80.147C88.6484 80.147 87.7944 79.923 87.0524 79.475C86.3244 79.027 85.7574 78.39 85.3514 77.564C84.9594 76.738 84.7634 75.779 84.7634 74.687C84.7634 73.595 84.9594 72.636 85.3514 71.81C85.7574 70.984 86.3244 70.347 87.0524 69.899C87.7944 69.451 88.6484 69.227 89.6144 69.227C90.5664 69.227 91.4064 69.451 92.1344 69.899C92.8624 70.347 93.4224 70.984 93.8144 71.81C94.2204 72.636 94.4234 73.595 94.4234 74.687C94.4234 75.779 94.2204 76.738 93.8144 77.564C93.4224 78.39 92.8624 79.027 92.1344 79.475C91.4064 79.923 90.5664 80.147 89.6144 80.147ZM89.5934 79.013C90.7134 79.013 91.5744 78.642 92.1764 77.9C92.7924 77.144 93.1004 76.073 93.1004 74.687C93.1004 73.315 92.7924 72.251 92.1764 71.495C91.5604 70.725 90.7064 70.34 89.6144 70.34C88.5084 70.34 87.6474 70.725 87.0314 71.495C86.4154 72.251 86.1074 73.315 86.1074 74.687C86.1074 76.087 86.4084 77.158 87.0104 77.9C87.6124 78.642 88.4734 79.013 89.5934 79.013ZM102.12 69.227C104.654 69.227 105.921 70.585 105.921 73.301V80H104.64V73.385C104.64 72.335 104.423 71.565 103.989 71.075C103.569 70.585 102.904 70.34 101.994 70.34C100.944 70.34 100.097 70.662 99.4534 71.306C98.8094 71.95 98.4874 72.818 98.4874 73.91V80H97.2274V72.398C97.2274 71.306 97.1714 70.333 97.0594 69.479H98.2774L98.4454 71.411C98.7674 70.697 99.2504 70.158 99.8944 69.794C100.538 69.416 101.28 69.227 102.12 69.227ZM110.04 74.582V74.645C110.04 76.059 110.362 77.144 111.006 77.9C111.664 78.642 112.616 79.013 113.862 79.013C115.122 79.013 116.277 78.579 117.327 77.711L117.831 78.719C117.369 79.153 116.781 79.503 116.067 79.769C115.353 80.021 114.618 80.147 113.862 80.147C112.266 80.147 111.006 79.664 110.082 78.698C109.158 77.732 108.696 76.402 108.696 74.708C108.696 73.63 108.899 72.678 109.305 71.852C109.725 71.012 110.306 70.368 111.048 69.92C111.79 69.458 112.644 69.227 113.61 69.227C114.996 69.227 116.074 69.675 116.844 70.571C117.628 71.467 118.02 72.713 118.02 74.309V74.582H110.04ZM113.61 70.277C112.644 70.277 111.86 70.571 111.258 71.159C110.656 71.733 110.278 72.545 110.124 73.595H116.802C116.718 72.517 116.403 71.698 115.857 71.138C115.311 70.564 114.562 70.277 113.61 70.277Z" fill="#7D7987"/>
</svg>
